<svg viewBox="0 0 6903 2112" xmlns="http://www.w3.org/2000/svg"><title>Susie's Catering</title><g fill="#fff" fill-rule="nonzero"><path d="M3598.73 1371.47c-32.09 0-62.19-6.15-90.32-18.44-28.12-12.29-52.7-28.96-73.75-50-21.04-21.04-37.7-45.63-50-73.75-12.29-28.13-18.43-58.23-18.43-90.31 0-32.09 6.14-62.19 18.43-90.32 12.3-28.12 28.96-52.71 50-73.75 21.05-21.04 45.63-37.71 73.75-50 28.13-12.29 58.23-18.43 90.32-18.43 41.25 0 79.79 10.2 115.62 30.62 7.08 3.75 11.56 9.27 13.44 16.56 1.87 7.29.94 14.27-2.81 20.94-3.75 7.08-9.38 11.56-16.88 13.44-7.5 1.87-14.58.94-21.25-2.81-13.33-7.92-27.39-13.75-42.19-17.5-14.79-3.75-30.1-5.63-45.93-5.63-24.59 0-47.61 4.69-69.07 14.06-21.45 9.38-40.1 21.98-55.93 37.82-15.84 15.83-28.44 34.58-37.82 56.25-9.37 21.66-14.06 44.58-14.06 68.75 0 24.58 4.69 47.6 14.06 69.06 9.38 21.46 21.98 40.21 37.82 56.25 15.83 16.04 34.48 28.75 55.93 38.12 21.46 9.38 44.48 14.07 69.07 14.07 17.08 0 33.64-2.4 49.68-7.19 16.05-4.79 31.15-11.56 45.32-20.31 6.66-4.59 13.75-6.05 21.25-4.38s13.33 5.83 17.5 12.5c4.16 6.67 5.41 13.65 3.75 20.94-1.67 7.29-5.84 13.23-12.5 17.81-38.34 23.75-80 35.63-125 35.63zm695-40.63c3.33 7.08 3.75 14.06 1.25 20.94-2.5 6.87-7.3 11.98-14.38 15.31-7.08 3.33-14.17 3.75-21.25 1.25s-12.29-7.29-15.62-14.37l-49.38-106.25h-125.62c-7.92 0-14.48-2.61-19.69-7.82-5.21-5.21-7.81-11.77-7.81-19.68 0-7.5 2.6-13.96 7.81-19.38 5.21-5.42 11.77-8.12 19.69-8.12h99.37l-87.5-187.5-154.37 348.12c-2.5 5.42-6.05 9.48-10.63 12.19-4.58 2.71-9.58 4.06-15 4.06-3.75 0-7.5-.62-11.25-1.87-7.08-3.34-11.98-8.55-14.69-15.63-2.7-7.08-2.39-14.17.94-21.25l179.38-403.12c2.08-5 5.41-8.96 10-11.88 4.58-2.92 9.58-4.37 15-4.37 5.41 0 10.41 1.35 15 4.06 4.58 2.71 7.91 6.56 10 11.56l188.75 403.75zm372.5-420c7.91 0 14.48 2.6 19.68 7.81 5.21 5.21 7.82 11.77 7.82 19.69 0 7.5-2.61 13.96-7.82 19.38-5.2 5.41-11.77 8.12-19.68 8.12h-134.38v375c0 7.92-2.6 14.48-7.81 19.69-5.21 5.21-11.77 7.81-19.69 7.81-7.5 0-13.96-2.6-19.37-7.81-5.42-5.21-8.13-11.77-8.13-19.69v-375h-134.37c-7.5 0-13.96-2.71-19.38-8.12-5.42-5.42-8.12-11.88-8.12-19.38 0-7.92 2.7-14.48 8.12-19.69 5.42-5.21 11.88-7.81 19.38-7.81h323.75zm437.5 401.88c7.5 0 13.95 2.6 19.37 7.81 5.42 5.21 8.13 11.77 8.13 19.69 0 7.5-2.71 13.95-8.13 19.37-5.42 5.42-11.87 8.13-19.37 8.13H4868.1c-7.5 0-13.96-2.71-19.37-8.13-5.42-5.42-8.13-11.87-8.13-19.37v-402.5c0-7.5 2.71-13.96 8.13-19.38 5.41-5.42 11.87-8.12 19.37-8.12h235.63c7.5 0 13.95 2.7 19.37 8.12 5.42 5.42 8.13 11.88 8.13 19.38 0 7.91-2.71 14.47-8.13 19.68-5.42 5.21-11.87 7.82-19.37 7.82H4895.6v146.25h81.88c7.5 0 13.95 2.7 19.37 8.12 5.42 5.42 8.13 11.88 8.13 19.38 0 7.5-2.71 13.95-8.13 19.37-5.42 5.42-11.87 8.13-19.37 8.13h-81.88v146.25h208.13zm545.62 60c-12.08 0-22.81-1.67-32.19-5-9.37-3.34-19.27-11.05-29.68-23.13-4.59-5-10.73-13.23-18.44-24.69-7.71-11.46-16.98-25.1-27.81-40.93-5.84-8.34-11.15-15.84-15.94-22.5-4.79-6.67-8.23-11.67-10.31-15l-2.5-3.75c-5.42-7.09-10.21-12.19-14.38-15.32-4.17-3.12-11.04-4.68-20.62-4.68-7.92 0-14.69-2.71-20.32-8.13-5.62-5.42-8.43-12.08-8.43-20s2.81-14.69 8.43-20.31c5.63-5.63 12.4-8.44 20.32-8.44 13.33 0 25.93-2.6 37.81-7.81 11.87-5.21 22.19-12.19 30.94-20.94 8.75-8.75 15.73-18.96 20.93-30.62 5.21-11.67 7.82-24.17 7.82-37.5 0-13.34-2.61-25.94-7.82-37.82-5.2-11.87-12.18-22.18-20.93-30.93s-19.07-15.73-30.94-20.94c-11.88-5.21-24.48-7.81-37.81-7.81h-131.25v378.12c0 7.92-2.71 14.58-8.13 20-5.42 5.42-12.08 8.13-20 8.13s-14.69-2.71-20.31-8.13c-5.63-5.42-8.44-12.08-8.44-20V937.72c0-7.92 2.81-14.59 8.44-20 5.62-5.42 12.39-8.13 20.31-8.13h159.38c21.25 0 41.25 4.06 60 12.19 18.75 8.12 35.1 19.16 49.06 33.12 13.96 13.96 25 30.32 33.12 49.07 8.13 18.75 12.19 38.75 12.19 60 0 28.75-7.19 54.89-21.56 78.43-14.38 23.54-33.44 41.98-57.19 55.32 1.25 1.66 2.71 3.75 4.38 6.25l2.5 3.12c2.91 3.75 6.87 9.17 11.87 16.25 5 7.08 10.42 15 16.25 23.75 3.75 5.42 7.71 11.25 11.88 17.5 4.16 6.25 8.23 12.19 12.18 17.81 3.96 5.63 7.5 10.73 10.63 15.32 3.12 4.58 5.73 7.91 7.81 10 3.75 4.16 6.36 6.56 7.81 7.18 1.46.63 5.11.94 10.94.94 7.92 0 14.58 2.81 20 8.44 5.42 5.62 8.13 12.39 8.13 20.31 0 7.92-2.71 14.58-8.13 20-5.42 5.42-12.08 8.13-20 8.13zm188.75-1.25c-7.92 0-14.58-2.71-20-8.13-5.42-5.42-8.12-12.08-8.12-20V937.09c0-7.5 2.7-13.96 8.12-19.37 5.42-5.42 12.08-8.13 20-8.13 7.5 0 13.96 2.71 19.38 8.13 5.41 5.41 8.12 11.87 8.12 19.37v406.25c0 7.92-2.71 14.58-8.12 20-5.42 5.42-11.88 8.13-19.38 8.13zm513.75-1.25c-9.17 0-16.25-3.55-21.25-10.63l-260.62-342.5v326.25c0 7.5-2.61 13.85-7.82 19.06-5.2 5.21-11.56 7.82-19.06 7.82-7.08 0-13.33-2.61-18.75-7.82-5.42-5.21-8.12-11.56-8.12-19.06V937.72c0-5.84 1.66-11.05 5-15.63 3.33-4.58 7.91-7.71 13.75-9.37 5.41-2.09 10.83-2.3 16.25-.63 5.41 1.67 10 4.79 13.75 9.38l260 343.12V937.72c0-7.09 2.6-13.34 7.81-18.75 5.21-5.42 11.56-8.13 19.06-8.13 7.5 0 13.86 2.71 19.06 8.13 5.21 5.41 7.82 11.66 7.82 18.75v405.62c0 5.83-1.67 11.04-5 15.63-3.34 4.58-7.71 7.91-13.13 10-4.17.83-7.08 1.25-8.75 1.25zm412.5 5c-32.08 0-62.19-6.15-90.31-18.44-28.13-12.29-52.71-28.96-73.75-50s-37.71-45.63-50-73.75c-12.29-28.13-18.44-58.23-18.44-90.31 0-32.09 6.15-62.3 18.44-90.63 12.29-28.33 28.96-53.02 50-74.06s45.62-37.71 73.75-50c28.12-12.29 58.23-18.44 90.31-18.44 10.83 0 20.63.52 29.38 1.56s16.98 2.71 24.68 5c7.71 2.29 15.11 5.21 22.19 8.75 7.08 3.54 14.79 7.61 23.13 12.19 6.66 3.75 11.04 9.38 13.12 16.88 2.08 7.5 1.25 14.58-2.5 21.25-4.17 6.66-9.89 11.04-17.19 13.12-7.29 2.08-14.27 1.04-20.93-3.12-6.67-3.75-12.71-6.88-18.13-9.38-5.42-2.5-10.83-4.58-16.25-6.25s-11.04-2.81-16.87-3.44c-5.84-.62-12.71-.93-20.63-.93-24.58 0-47.6 4.68-69.06 14.06-21.46 9.37-40.11 22.08-55.94 38.12-15.83 16.04-28.44 34.79-37.81 56.25-9.38 21.46-14.06 44.48-14.06 69.07 0 24.58 4.68 47.6 14.06 69.06 9.37 21.46 21.98 40.1 37.81 55.94 15.83 15.83 34.48 28.43 55.94 37.81 21.46 9.37 44.48 14.06 69.06 14.06 29.17 0 56.67-6.67 82.5-20v-102.5h-62.5c-7.92 0-14.58-2.71-20-8.12-5.42-5.42-8.12-12.09-8.12-20 0-7.5 2.7-13.96 8.12-19.38 5.42-5.42 12.08-8.12 20-8.12h90c7.92 0 14.58 2.7 20 8.12 5.42 5.42 8.13 11.88 8.13 19.38v146.87c0 10-4.38 17.71-13.13 23.13-38.33 24.16-80 36.25-125 36.25z"/><path d="M2895.51 39.28c138.45 129.5 184.59 728.53 138.45 841.85-57.38 140.96-115.38 32.37-115.38 307.6V2063c0 26.82-30.96 48.55-69.18 48.55-38.24 0-69.22-21.75-69.22-48.55V39.28c-.03-48.58 56.58-54.97 115.33 0zm-220.57 16.18c-12.75 0-23.07 31.97-23.07 71.43v391.98c0 8.62-10.31 15.64-23.06 15.64-12.76 0-23.07-7-23.07-15.64v-392c0-39.44-10.34-71.43-23.07-71.43-12.75 0-23.06 31.97-23.06 71.43v391.98c0 8.62-10.34 15.64-23.07 15.64-12.76 0-23.07-7-23.07-15.64V126.87c0-39.44-10.33-71.43-23.06-71.43-12.76 0-23.07 31.97-23.07 71.43v391.98c0 8.62-10.34 15.64-23.07 15.64-12.75 0-23.07-7-23.07-15.64V126.87c0-39.44-10.31-71.43-23.06-71.43-12.76 0-23.07 31.97-23.07 71.43v506.39c0 144.47 92.29 144.47 92.29 228.14V2063c0 26.82 30.98 48.55 69.23 48.55 38.24 0 69.2-21.75 69.2-48.55V861.42c0-83.67 92.27-83.67 92.27-228.13V126.87c-.08-39.44-10.39-71.41-23.12-71.41z"/><g><path d="M245.52 1044.73c0-88.9 88.89-247.88 163.15-244.74 8.37 13.6 12.55 28.24 12.55 43.93 0 66.93-74.25 163.15-74.25 230.09 0 37.65 24.05 50.2 51.24 50.2 30.33 0 47.07-16.73 53.34-52.29 23.01-131.78 29.29-170.48 29.29-193.49 0-31.37-12.55-73.21-54.39-93.08-2.09-13.6-36.6-31.38-65.89-31.38-94.13 0-216.494 186.17-216.494 315.86 0 168.38 203.944 234.27 203.944 318.99 0 24.05-16.73 54.38-81.58 54.38-120.272 0-130.73-103.54-201.85-103.54-34.514 0-63.8 24.06-63.8 47.07 0 9.41 4.185 16.73 11.506 24.05 85.76 79.49 134.917 96.22 189.303 96.22 75.3 0 138.05-32.42 152.7-65.89 26.14-15.69 52.29-58.57 52.29-109.81 0-126.56-161.06-166.3-161.06-286.57zM1817.46 976.74c12.55-47.06 44.98-149.56 44.98-178.84 0-24.06-28.24-40.79-52.3-40.79-50.2 0-60.66 106.68-60.66 197.67 0 30.33 19.87 47.07 38.7 47.07 12.55 0 25.1-8.37 29.28-25.11zM1801.77 1327.11c-37.65-6.27-58.56 30.33-58.56 66.94 0 50.2 40.78 109.81 157.92 109.81 106.68 0 149.56-85.76 149.56-170.47 0-83.67-57.52-187.21-80.53-262.52 43.93-70.07 65.89-130.73 65.89-169.43 0-29.28-13.6-47.06-38.7-47.06-39.74 0-72.16 56.47-72.16 126.55 0 27.19 5.23 55.43 15.69 83.67-30.33 64.84-86.81 183.03-139.11 262.51zm142.24-185.12c3.14 63.8 7.32 134.92 7.32 170.48 0 131.78-41.83 167.34-76.34 167.34-25.11 0-36.61-18.83-36.61-53.34 0-52.29 1.05-72.17-10.46-84.72 31.38-46.01 82.63-122.36 116.09-199.76zM1634.43 983.02c-12.55-10.46-36.6-17.78-59.61-17.78-109.82 0-199.76 201.85-199.76 357.69 0 99.36 36.6 180.93 126.55 180.93 120.27 0 193.49-92.03 240.55-209.17 2.09-5.23 3.14-10.46 3.14-14.64 0-6.28-3.14-10.46-7.32-10.46-5.23 0-10.46 4.18-16.74 14.64-27.19 42.88-80.53 155.84-179.89 155.84-64.84 0-69.03-79.49-69.03-125.51 13.6 4.18 27.2 6.28 39.75 6.28 110.86 0 186.16-141.2 186.16-241.6 0-51.25-19.87-90.99-63.8-96.22zm-160.01 303.3c12.55-125.5 81.57-280.29 141.19-280.29 15.69 0 17.78 17.78 17.78 34.51 0 81.58-88.9 246.83-150.61 246.83-3.13 0-5.23 0-8.36-1.05zM1299.76 909.81c65.89 0 108.77-55.43 108.77-99.36 0-29.28-18.83-54.39-61.71-54.39-57.52 0-94.13 58.57-94.13 103.55 0 27.19 14.64 50.2 47.07 50.2zm37.65 101.45c0-35.56-28.24-53.34-54.39-53.34-19.87 0-36.6 9.41-41.83 27.19-41.84 153.74-81.58 347.23-81.58 409.98 0 78.44 34.51 107.73 75.3 107.73 87.85 0 148.52-171.52 163.16-208.13 3.14-7.32 4.18-12.55 4.18-17.78 0-6.28-3.14-10.46-7.32-10.46-5.23 0-11.5 6.28-17.78 17.78-11.5 23.01-69.03 149.56-107.72 149.56-13.6 0-18.83-12.55-18.83-34.51 0-80.54 86.81-332.59 86.81-388.02zM947.3 1503.86c134.91 0 193.48-75.3 247.87-209.17 2.09-6.28 3.14-11.51 3.14-15.69 0-7.32-2.1-11.5-6.28-11.5-5.23 0-11.5 5.23-17.78 16.73-46.02 80.53-60.66 120.28-102.49 151.65 17.77-30.33 25.1-65.89 25.1-102.49 0-83.67-57.53-187.21-80.54-262.52 43.93-70.07 65.89-130.73 65.89-169.43 0-29.28-13.59-47.06-38.69-47.06-39.75 0-72.17 56.47-72.17 126.55 0 27.19 5.23 55.43 15.69 83.67-30.33 64.84-86.81 183.03-139.1 262.51-37.65-8.37-58.57 34.52-58.57 66.94 0 50.2 40.79 109.81 157.93 109.81zm42.88-361.87c3.13 63.8 7.32 134.92 7.32 170.48 0 131.78-41.84 167.34-76.35 167.34-25.1 0-36.61-18.83-36.61-53.34 0-52.29 1.05-72.17-10.45-84.72 31.37-46.01 82.62-122.36 116.09-199.76zM635.63 1014.4c1.04-3.14 1.04-7.33 1.04-10.46 0-25.1-21.96-38.7-44.97-38.7-24.06 0-51.25 14.64-56.48 47.06-20.92 125.51-64.84 277.16-64.84 378.61 0 66.94 19.87 111.91 78.44 111.91 42.88 0 77.39-33.47 105.63-87.86 2.09 71.12 39.74 87.86 71.12 87.86 87.85 0 155.84-171.52 170.48-208.13 3.14-7.32 4.18-13.6 4.18-17.78 0-7.32-3.14-10.46-7.32-10.46-5.23 0-11.5 5.23-17.78 17.78-11.5 23.01-75.3 156.88-112.95 156.88-9.42 0-13.6-9.41-13.6-28.24 0-72.16 87.85-365.01 87.85-406.84 0-27.19-21.96-42.88-44.97-42.88-25.1 0-50.2 15.69-57.52 50.2-47.07 216.5-86.81 418.35-147.47 418.35-15.69 0-23.01-15.69-23.01-43.93 0-67.98 38.7-207.08 72.17-373.37z"/></g></g></svg>
